<?xml version="1.0" encoding="utf-8"?>
<!-- Svg Vector Icons : http://www.onlinewebfonts.com/icon -->
<!DOCTYPE svg PUBLIC "-//W3C//DTD SVG 1.1//EN" "http://www.w3.org/Graphics/SVG/1.1/DTD/svg11.dtd">
<svg version="1.1" xmlns="http://www.w3.org/2000/svg" xmlns:xlink="http://www.w3.org/1999/xlink" x="0px" y="0px" viewBox="0 0 1000 1000" enable-background="new 0 0 1000 1000" xml:space="preserve">
<metadata> Svg Vector Icons : http://www.onlinewebfonts.com/icon </metadata>
<g><g transform="translate(0.000000,511.000000) scale(0.100000,-0.100000)"><path d="M3621.7,4895.2C2051,4693.2,749.6,3615.5,271,2119.3C119.4,1650.3,97.8,1486.7,100.2,880.5c0-603.8,26.5-781.8,192.4-1272.5c425.8-1277.3,1496.2-2268.3,2816.8-2612.3c1051.2-274.2,2246.7-81.8,3143.9,500.3l202,132.3l837.1-899.6c863.6-928.5,890-952.6,981.4-861.2c62.5,62.5,43.3,127.5-79.4,257.4c-62.5,69.8-435.4,469.1-827.5,890l-712,765l149.1,137.1c81.8,74.6,199.6,190,259.8,255l108.2,117.9l1193.1-1039.1c1065.6-928.5,1197.9-1051.2,1243.6-1157c81.8-192.4,60.1-353.6-72.2-538.8c-79.4-108.3-86.6-163.6-31.3-216.5c62.5-64.9,144.3-45.7,223.7,52.9c204.5,245.4,228.5,635,55.3,911.7c-40.9,64.9-500.3,481.1-1258,1142.6L7333.3-1515.3l141.9,218.9c271.8,416.1,461.8,880.4,577.3,1397.6c45.7,204.5,52.9,312.7,52.9,779.4c2.4,606.2-28.9,820.3-192.4,1303.8c-553.3,1645.3-2112,2751.8-3846.3,2735C3908,4916.9,3708.3,4907.2,3621.7,4895.2z M4884.6,4587.3c1164.2-271.8,2073.5-979,2593.1-2011c805.8-1606.8,344-3598.5-1084.8-4673.8c-473.9-356-902-555.6-1484.2-692.8c-269.4-65-322.3-67.3-805.8-67.3s-536.4,2.4-805.8,67.3c-358.4,84.2-560.5,156.4-863.5,307.9c-603.8,300.7-1092.1,728.8-1462.5,1279.7c-1169,1746.3-690.4,4094.1,1068,5251.1c466.7,307.9,885.2,464.2,1582.8,594.1c33.7,4.8,281.4,7.2,553.2,2.4C4571.9,4640.2,4711.4,4628.2,4884.6,4587.3z"/><path d="M3850.2,3798.3c-194.8-24.1-478.7-91.4-661.5-156.4c-1019.9-360.8-1789.6-1274.9-1960.4-2338.1c-72.2-445-33.7-1000.7,101-1407.2c245.3-755.3,789-1392.8,1489-1751.2c459.4-235.7,870.8-331.9,1392.7-329.5c825.1,4.8,1544.3,310.3,2121.6,902c425.8,435.4,709.6,981.4,813,1570.7c48.1,276.6,48.1,791.4,0,1051.2c-267,1440.9-1534.7,2492-2982.8,2470.4C4030.6,3810.4,3891.1,3803.1,3850.2,3798.3z M4879.8,3471.2C6313.4,3091.1,7201,1628.6,6866.7,197.4c-394.5-1674.2-2184.2-2581-3764.5-1907.5C2289.1-1366.1,1658.9-582,1490.5,296c-50.5,259.8-55.3,724-12,969.4c202.1,1135.4,1087.3,2037.4,2208.2,2249.1C3989.8,3569.8,4581.5,3548.2,4879.8,3471.2z"/><path d="M3922.4,2222.8c-43.3-33.7-127.5-178-230.9-394.5l-161.2-339.2l-202.1-28.9c-538.8-79.4-603.8-96.2-673.5-163.6c-72.2-69.8-105.8-185.2-81.8-288.7c9.6-43.3,122.7-168.4,303.1-344l288.7-276.6l-60.1-344c-33.7-187.6-60.1-375.2-60.1-416.1c0-93.8,55.3-197.2,129.9-247.8c117.9-77,223.7-50.5,596.6,141.9c307.9,158.8,351.2,175.6,394.5,146.7c24.1-16.8,178-98.6,341.6-182.8c286.3-144.3,298.3-146.7,353.6-110.6c69.8,45.7,79.4,134.7,19.2,187.6c-96.2,84.2-700,380-774.5,380c-52.9,0-199.7-62.5-428.2-182.8c-192.4-101-356-173.2-368-163.6c-12,12,4.8,163.6,36.1,334.3c67.3,363.2,72.2,495.5,26.5,584.5c-19.2,36.1-149.1,170.8-291.1,303.1c-156.4,144.3-252.6,252.6-247.8,274.2c7.2,31.3,86.6,50.5,389.7,93.8c216.5,31.3,408.9,72.2,440.2,91.4c31.3,21.6,129.9,185.2,235.7,396.9c98.6,199.6,192.4,360.8,204.5,360.8c12,0,103.4-161.2,202.1-356c115.5-230.9,202.1-372.8,240.5-399.3c38.5-24.1,206.9-60.1,442.6-93.8c286.3-40.9,380.1-62.5,384.9-89c2.4-21.6-113.1-153.9-259.8-298.3c-185.2-185.2-264.6-279-264.6-317.5c0-67.3,101-141.9,153.9-113.1c81.8,45.7,572.5,524.4,606.2,591.7c55.3,105.8,31.3,247.8-57.7,334.4c-62.6,64.9-98.6,74.6-440.2,127.5c-204.5,33.7-384.9,60.1-401.7,60.1c-16.8,0-103.4,153.9-194.8,344c-187.6,394.5-238.1,449.8-411.3,449.8C4021,2275.7,3970.5,2261.3,3922.4,2222.8z"/></g></g>
</svg>