<?xml version="1.0" encoding="utf-8"?>
<!-- Svg Vector Icons : http://www.onlinewebfonts.com/icon -->
<!DOCTYPE svg PUBLIC "-//W3C//DTD SVG 1.1//EN" "http://www.w3.org/Graphics/SVG/1.1/DTD/svg11.dtd">
<svg version="1.1" xmlns="http://www.w3.org/2000/svg" xmlns:xlink="http://www.w3.org/1999/xlink" x="0px" y="0px" viewBox="0 0 1000 1000" enable-background="new 0 0 1000 1000" xml:space="preserve">
<metadata> Svg Vector Icons : http://www.onlinewebfonts.com/icon </metadata>
<g><g transform="translate(0.000000,511.000000) scale(0.100000,-0.100000)"><path d="M3673,4904.6c-33.5-4.8-162.5-26.3-286.8-47.8c-511.5-86.1-1154.6-356.2-1601.6-674.1c-284.5-200.8-733.9-645.4-925.1-913.1c-375.3-530.7-600-1058.9-714.7-1685.2c-59.8-329.9-59.8-1027.9,0-1362.5c114.7-638.2,360.9-1202.4,753-1733c186.5-255.8,621.5-676.5,886.8-865.3c447-315.5,1066.1-578.5,1613.5-678.9c363.3-69.3,1149.8-62.1,1494,12c497.2,105.2,992,306,1396,568.9c88.5,57.4,169.7,102.8,179.3,98c9.5-4.8,365.7-382.5,791.2-843.8c425.5-459,793.6-846.2,817.5-858.2c71.7-35.8,162.5,19.1,162.5,98c0,55-150.6,229.5-786.4,915.5l-784,848.6l258.2,258.2l260.6,255.8l1190.4-1037.4c1221.5-1066.1,1238.2-1080.4,1281.3-1286c23.9-112.4-12-258.2-95.6-382.5c-45.4-66.9-81.3-145.8-81.3-176.9c0-57.4,59.8-105.2,131.5-105.2c52.6,0,148.2,107.6,222.3,251c55,102.8,64.6,148.2,64.6,334.7s-9.6,231.9-64.6,337c-33.4,64.5-93.2,150.6-131.5,191.2c-35.9,38.3-585.6,521.1-1216.7,1070.9L7335.1-1504l143.4,217.5c478.1,724.3,705.2,1613.5,638.2,2490.8c-136.3,1795.2-1429.5,3260.5-3212.7,3642.9c-186.4,40.6-341.8,52.6-705.2,59.8C3943.1,4911.8,3706.5,4911.8,3673,4904.6z M4827.6,4608.2c499.6-98,1044.6-329.9,1467.7-628.7c274.9-193.6,695.6-616.7,896.4-901.2c291.6-413.5,506.8-910.7,621.5-1441.4c45.4-208,52.6-317.9,52.6-733.9s-7.2-528.3-52.6-731.5c-219.9-1015.9-788.8-1857.3-1635-2416.7c-1348.2-889.2-3107.5-822.3-4381.6,172.1C579.9-1126.3,56.4,475.3,481.9,1943c415.9,1431.8,1632.6,2488.4,3114.7,2701.1C3919.2,4691.9,4492.9,4675.2,4827.6,4608.2z"/><path d="M3797.3,3793.1c-349-45.4-786.5-193.6-1094.8-375.3c-614.3-358.6-1097.2-937-1333.8-1601.6c-219.9-619.1-219.9-1374.5,0-1993.6c258.2-721.9,824.7-1360.1,1498.8-1687.6c1142.6-559.4,2478.8-353.8,3394.4,518.7c600,573.7,925.1,1333.9,925.1,2165.7c0,836.6-317.9,1584.8-920.3,2160.9c-260.5,246.2-478.1,394.4-805.5,552.2C4954.3,3774,4359.1,3867.2,3797.3,3793.1z M4447.5,3556.5c1223.9-119.5,2196.8-1004,2457.3-2235c40.6-193.6,40.6-793.6-2.4-1004c-71.7-358.6-219.9-721.9-413.5-1015.9l-102.8-155.4L6379,339c-4.8,1068.5-9.6,1200-45.4,1238.2c-35.9,38.2-86,43-533,43c-351.4,0-499.6-7.2-521.1-28.7c-21.5-21.5-28.7-425.5-28.7-1670.9v-1642.2l-95.6-38.3c-52.6-21.5-107.6-38.2-119.5-38.2c-14.3,0-23.9,353.8-23.9,975.3c0,843.8-4.8,982.5-38.2,1027.9c-35.8,52.6-47.8,52.6-533,52.6c-387.2,0-504.4-7.2-525.9-31.1c-16.7-23.9-28.7-356.2-31.1-1082.9l-7.2-1049.4l-71.7,7.2c-38.2,2.4-95.6,12-124.3,16.7l-55,12v1262.1c0,949-7.2,1269.3-28.7,1290.8c-21.5,21.5-169.7,28.7-521.1,28.7c-447,0-497.2-4.8-533.1-43c-35.8-38.3-40.6-155.4-45.4-1035.1l-7.2-989.6l-215.1,215.1c-210.4,210.4-423.1,499.6-545,741C1483.4,92.8,1392.6,728.6,1488.2,1288c208,1214.3,1216.7,2149,2447.8,2268.5C4194.1,3580.4,4189.4,3580.4,4447.5,3556.5z M6111.2,114.3v-1266.9l-98-90.8c-110-98-356.2-277.3-456.6-329.9l-66.9-35.8v1496.4v1494h310.8h310.7V114.3z M3386.2-665v-1137.8l-64.6,16.7c-38.2,7.2-176.9,66.9-310.8,131.5l-246.2,117.1v1004V472.9h310.8h310.8V-665z M4743.9-930.3l-7.2-951.4l-107.6-14.4c-59.8-7.2-196-21.5-303.6-31.1l-198.4-14.3v980.1V18.7H4438h310.8L4743.9-930.3z"/></g></g>
</svg>